<?xml version="1.0" standalone="no"?>
<!DOCTYPE svg PUBLIC "-//W3C//DTD SVG 20010904//EN"
 "http://www.w3.org/TR/2001/REC-SVG-20010904/DTD/svg10.dtd">
<svg version="1.0" xmlns="http://www.w3.org/2000/svg"
 width="1920.000000pt" height="1920.000000pt" viewBox="0 0 1920.000000 1920.000000"
 preserveAspectRatio="xMidYMid meet">
<metadata>
Created by potrace 1.14, written by Peter Selinger 2001-2017
</metadata>
<g transform="translate(0.000000,1920.000000) scale(0.100000,-0.100000)"
fill="#000000" stroke="none">
<path d="M9268 19114 c-2 -2 -51 -6 -109 -9 -183 -10 -343 -21 -409 -29 -25
-3 -76 -8 -113 -11 -37 -4 -77 -8 -87 -10 -10 -2 -47 -6 -82 -10 -35 -3 -70
-8 -78 -10 -8 -2 -35 -6 -60 -9 -25 -4 -56 -8 -70 -10 -14 -3 -59 -10 -100
-16 -65 -10 -286 -50 -360 -65 -14 -3 -41 -8 -60 -10 -82 -12 -111 -18 -225
-46 -66 -16 -129 -31 -140 -33 -135 -26 -641 -173 -895 -260 -74 -26 -142 -49
-150 -51 -47 -12 -93 -30 -260 -98 -102 -41 -252 -105 -335 -142 -82 -37 -193
-87 -245 -110 -81 -36 -495 -253 -525 -275 -5 -4 -30 -18 -55 -32 -147 -81
-241 -136 -282 -165 -26 -18 -50 -33 -54 -33 -3 0 -48 -29 -99 -65 -52 -36
-99 -65 -104 -65 -5 0 -11 -4 -13 -8 -1 -4 -55 -42 -118 -84 -97 -63 -527
-380 -610 -448 -81 -67 -161 -133 -185 -155 -12 -11 -44 -39 -71 -61 -27 -23
-65 -56 -84 -73 -19 -17 -55 -48 -79 -69 -44 -38 -317 -299 -400 -383 -58 -58
-166 -174 -251 -268 -36 -40 -78 -87 -95 -105 -16 -18 -46 -52 -65 -75 -19
-24 -44 -53 -55 -66 -11 -12 -31 -37 -45 -54 -14 -18 -36 -45 -50 -59 -27 -29
-51 -60 -125 -157 -70 -92 -80 -106 -128 -170 -25 -33 -52 -67 -60 -76 -8 -9
-25 -32 -38 -50 -13 -19 -27 -36 -30 -39 -5 -4 -190 -281 -234 -349 -5 -9 -12
-18 -15 -21 -8 -7 -86 -128 -149 -230 -69 -112 -58 -92 -162 -280 -51 -91
-108 -192 -126 -225 -34 -61 -144 -280 -175 -351 -10 -21 -38 -83 -63 -136
-25 -53 -45 -99 -45 -102 0 -2 -15 -37 -34 -78 -59 -126 -147 -347 -198 -498
-98 -288 -117 -348 -168 -515 -28 -93 -57 -190 -64 -215 -8 -25 -17 -61 -21
-80 -4 -19 -20 -83 -36 -141 -15 -58 -30 -117 -33 -130 -3 -13 -18 -85 -34
-159 -17 -74 -40 -189 -52 -255 -27 -153 -29 -165 -35 -195 -8 -35 -12 -61
-30 -175 -9 -55 -18 -111 -20 -125 -2 -14 -6 -50 -10 -80 -3 -30 -8 -66 -10
-80 -3 -14 -7 -45 -9 -70 -3 -25 -8 -70 -11 -100 -12 -111 -23 -235 -30 -345
-2 -27 -7 -99 -11 -160 -10 -138 -11 -765 -1 -905 16 -233 34 -449 42 -510 2
-14 7 -56 11 -95 3 -38 8 -79 10 -90 2 -11 6 -40 9 -65 3 -25 8 -58 10 -75 3
-16 7 -48 10 -70 3 -22 10 -62 15 -90 5 -27 11 -63 14 -80 4 -31 22 -132 31
-175 3 -14 14 -74 25 -135 27 -154 45 -236 91 -420 44 -172 58 -229 65 -259 2
-10 8 -33 14 -51 6 -18 13 -41 15 -51 3 -10 19 -64 36 -119 17 -55 32 -104 33
-110 2 -5 11 -37 21 -70 10 -33 20 -64 21 -70 28 -106 220 -619 289 -770 12
-27 53 -117 90 -200 102 -228 170 -370 224 -464 27 -47 64 -113 82 -146 18
-33 42 -76 53 -96 12 -20 38 -68 60 -105 21 -38 64 -111 95 -162 134 -221 435
-666 481 -712 8 -8 26 -31 40 -51 14 -20 35 -49 48 -65 12 -16 53 -69 90 -119
37 -49 74 -98 82 -107 8 -9 26 -31 40 -49 23 -29 37 -46 100 -119 12 -14 38
-45 58 -69 21 -25 51 -59 67 -77 17 -18 59 -65 95 -105 91 -101 197 -214 251
-268 108 -107 359 -348 385 -370 24 -19 140 -121 178 -156 6 -5 40 -35 76 -65
36 -30 67 -57 70 -60 3 -3 27 -24 55 -45 27 -22 55 -44 62 -50 18 -15 28 -22
138 -105 55 -41 105 -78 110 -83 41 -33 251 -188 291 -214 27 -18 128 -85 224
-148 96 -63 180 -119 187 -125 7 -5 15 -10 18 -10 4 0 25 -13 48 -29 93 -65
714 -405 814 -446 33 -13 113 -49 177 -80 65 -30 119 -55 122 -55 2 0 27 -11
56 -24 283 -128 711 -280 1133 -401 86 -25 344 -94 375 -100 8 -2 71 -17 140
-33 152 -36 209 -49 275 -58 28 -4 55 -8 60 -10 26 -6 285 -54 320 -59 22 -3
56 -8 75 -11 19 -3 42 -7 50 -9 8 -2 42 -7 75 -10 33 -3 67 -8 75 -10 17 -5
68 -11 155 -20 33 -4 74 -8 90 -10 17 -2 62 -7 100 -10 39 -4 88 -9 110 -11
22 -2 76 -6 120 -8 44 -3 121 -9 170 -12 50 -4 248 -7 440 -7 313 -1 423 2
630 18 33 2 92 7 130 10 71 5 154 13 211 20 17 3 57 7 90 10 57 6 86 9 157 20
17 3 48 7 67 9 19 2 51 7 70 10 19 3 49 8 65 10 60 8 282 48 350 62 39 8 97
19 130 24 33 5 69 11 80 14 11 2 43 9 70 16 28 6 115 27 195 46 80 20 152 37
160 39 96 20 451 127 737 222 230 76 332 114 539 201 187 79 387 169 549 247
125 61 461 243 490 265 6 4 46 27 90 51 44 23 112 63 150 87 153 99 594 393
607 404 7 7 56 45 108 84 150 113 353 268 379 289 13 11 34 29 47 40 13 11 44
38 70 60 26 22 57 49 69 60 110 97 155 137 185 161 31 26 260 246 374 360 54
55 184 193 271 289 69 77 78 86 145 165 57 68 74 87 105 124 17 20 39 46 50
59 31 36 61 75 184 237 11 14 39 52 64 85 25 33 52 67 60 76 8 9 25 32 38 50
13 19 27 36 30 39 3 3 49 70 102 150 52 80 123 185 157 234 33 50 90 137 126
195 81 131 67 107 167 286 173 309 239 435 295 561 32 71 73 159 90 195 18 37
32 69 32 72 0 3 15 38 34 79 64 137 147 348 221 566 92 267 224 701 250 822 2
8 22 87 44 175 22 88 47 201 56 250 9 50 27 146 40 215 29 152 53 281 60 335
3 22 10 65 15 95 5 30 12 80 15 110 6 56 12 101 20 155 2 17 7 59 11 95 3 36
8 79 10 95 1 17 6 68 9 115 3 47 8 110 10 140 16 188 19 302 19 615 0 193 -3
395 -7 450 -4 55 -10 132 -12 170 -10 133 -21 259 -30 330 -2 17 -7 62 -10
100 -4 39 -9 79 -11 90 -2 11 -6 40 -9 65 -3 25 -8 59 -10 75 -3 17 -7 48 -10
70 -3 22 -10 63 -15 90 -5 28 -11 64 -14 80 -4 31 -22 132 -31 175 -3 14 -14
75 -25 135 -27 153 -44 235 -91 420 -22 88 -42 167 -44 175 -21 104 -217 736
-255 825 -5 11 -16 45 -25 75 -21 67 -134 348 -181 448 -19 40 -34 74 -34 77
0 2 -20 46 -43 97 -24 51 -62 136 -85 188 -23 52 -76 157 -117 234 -41 76 -75
142 -75 146 0 5 -4 10 -8 12 -5 2 -36 53 -69 113 -94 171 -109 198 -168 292
-30 48 -62 100 -70 115 -9 16 -42 66 -75 113 -33 47 -60 90 -60 95 0 4 -4 10
-9 12 -5 2 -44 57 -87 123 -69 107 -149 221 -164 235 -3 3 -28 34 -55 70 -27
36 -53 70 -58 75 -4 6 -33 44 -63 85 -56 76 -91 120 -131 166 -11 14 -35 42
-53 64 -17 21 -41 49 -52 62 -11 13 -36 43 -56 67 -21 25 -50 59 -67 77 -16
18 -59 65 -95 104 -114 126 -204 222 -251 269 -126 126 -362 351 -409 391 -29
25 -63 54 -76 65 -79 72 -184 162 -233 201 -13 10 -32 26 -42 36 -9 9 -52 42
-96 74 -43 33 -80 61 -83 64 -3 3 -32 25 -65 50 -33 25 -64 48 -70 53 -5 4
-46 34 -90 67 -44 33 -88 66 -99 74 -37 29 -156 109 -326 221 -96 63 -180 119
-187 125 -7 5 -15 10 -19 10 -3 0 -20 10 -37 23 -35 25 -137 87 -143 87 -2 0
-70 38 -151 83 -251 142 -464 254 -583 306 -30 13 -86 39 -125 56 -227 105
-644 275 -673 275 -10 0 -22 3 -26 7 -3 4 -12 8 -19 9 -7 2 -66 22 -132 45
-368 127 -1013 300 -1250 335 -27 4 -54 8 -60 10 -26 6 -285 54 -320 59 -22 3
-56 8 -75 11 -19 3 -42 7 -50 9 -8 2 -42 7 -75 10 -33 3 -67 8 -75 10 -17 5
-72 12 -150 20 -30 3 -71 7 -90 10 -19 3 -64 7 -100 10 -36 3 -85 8 -110 10
-25 3 -88 7 -140 11 -52 3 -122 8 -155 10 -75 6 -783 13 -787 8z"/>
</g>
</svg>
